<svg width="137" height="22" viewBox="0 0 137 22" fill="none" xmlns="http://www.w3.org/2000/svg">
<path d="M0.238525 17.1502L5.08828 0.176123H9.69554L14.521 17.1502H11.8294L10.714 13.1492H4.06983L2.95439 17.1502H0.238525ZM4.72454 10.7243H10.0593L7.5859 1.80079H7.19792L4.72454 10.7243Z" fill="#111827"/>
<path d="M22.4464 17.4897C21.2986 17.4897 20.2559 17.2472 19.3183 16.7623C18.3969 16.2773 17.6613 15.5741 17.1117 14.6526C16.5782 13.7312 16.3115 12.6238 16.3115 11.3305V11.0153C16.3115 9.72205 16.5782 8.62277 17.1117 7.71748C17.6613 6.79603 18.3969 6.09282 19.3183 5.60784C20.2559 5.1067 21.2986 4.85613 22.4464 4.85613C23.5942 4.85613 24.5722 5.06629 25.3805 5.4866C26.1888 5.90691 26.8354 6.46463 27.3204 7.15976C27.8215 7.85489 28.1449 8.62277 28.2904 9.4634L25.8655 9.97262C25.7846 9.43915 25.6149 8.95417 25.3563 8.51769C25.0976 8.08122 24.7339 7.73365 24.2651 7.475C23.7962 7.21634 23.2062 7.08702 22.4949 7.08702C21.7998 7.08702 21.1693 7.24868 20.6035 7.57199C20.0539 7.87914 19.6174 8.33179 19.2941 8.92992C18.9707 9.51189 18.8091 10.2232 18.8091 11.0638V11.2821C18.8091 12.1227 18.9707 12.8421 19.2941 13.4402C19.6174 14.0383 20.0539 14.491 20.6035 14.7981C21.1693 15.1053 21.7998 15.2588 22.4949 15.2588C23.5457 15.2588 24.3459 14.9921 24.8955 14.4586C25.4452 13.909 25.7927 13.2139 25.9382 12.3732L28.3631 12.931C28.1691 13.7554 27.8215 14.5152 27.3204 15.2104C26.8354 15.9055 26.1888 16.4632 25.3805 16.8835C24.5722 17.2877 23.5942 17.4897 22.4464 17.4897Z" fill="#111827"/>
<path d="M31.2438 17.1502V0.176123H33.7414V6.89303H34.1294C34.291 6.58588 34.5174 6.28681 34.8083 5.99582C35.1155 5.70484 35.5116 5.47043 35.9965 5.29261C36.4977 5.09862 37.1281 5.00162 37.8879 5.00162C38.7932 5.00162 39.5934 5.2037 40.2886 5.60784C40.9999 6.01199 41.5576 6.58588 41.9617 7.3295C42.3659 8.05697 42.5679 8.93801 42.5679 9.97262V17.1502H40.0703V10.1666C40.0703 9.132 39.8117 8.3722 39.2944 7.88723C38.7771 7.38609 38.0658 7.13552 37.1605 7.13552C36.1259 7.13552 35.2933 7.475 34.6628 8.15396C34.0485 8.83293 33.7414 9.81904 33.7414 11.1123V17.1502H31.2438Z" fill="#111827"/>
<path d="M50.3169 17.1502C49.5895 17.1502 49.0075 16.932 48.571 16.4955C48.1507 16.0591 47.9406 15.4771 47.9406 14.7496V7.30526H44.6427V5.19561H47.9406V1.24307H50.4382V5.19561H54.0027V7.30526H50.4382V14.3131C50.4382 14.7981 50.6645 15.0406 51.1171 15.0406H53.6148V17.1502H50.3169Z" fill="#111827"/>
<path d="M61.991 17.4897C60.7786 17.4897 59.7197 17.2392 58.8144 16.738C57.9091 16.2207 57.1978 15.5013 56.6805 14.5799C56.1794 13.6423 55.9288 12.5592 55.9288 11.3305V11.0396C55.9288 9.79479 56.1794 8.71168 56.6805 7.79023C57.1817 6.85261 57.8768 6.13323 58.7659 5.63209C59.6712 5.11479 60.7139 4.85613 61.894 4.85613C63.0418 4.85613 64.0441 5.11479 64.9008 5.63209C65.7738 6.13323 66.4528 6.83645 66.9377 7.74173C67.4227 8.64702 67.6652 9.70588 67.6652 10.9183V11.864H58.4749C58.5073 12.9148 58.8548 13.7554 59.5176 14.3859C60.1966 15.0002 61.0372 15.3073 62.0395 15.3073C62.9771 15.3073 63.6803 15.0972 64.1491 14.6769C64.6341 14.2566 65.0059 13.7716 65.2646 13.222L67.3257 14.2889C67.0994 14.7415 66.768 15.2184 66.3315 15.7196C65.9112 16.2207 65.3535 16.641 64.6584 16.9805C63.9632 17.32 63.0741 17.4897 61.991 17.4897ZM58.4992 9.94837H65.1191C65.0544 9.04308 64.7311 8.33987 64.1491 7.83873C63.5672 7.32142 62.8074 7.06277 61.8698 7.06277C60.9321 7.06277 60.1643 7.32142 59.5661 7.83873C58.9842 8.33987 58.6285 9.04308 58.4992 9.94837Z" fill="#111827"/>
<path d="M70.6717 17.1502V5.19561H73.1208V6.99002H73.5088C73.7351 6.50505 74.1392 6.0524 74.7212 5.63209C75.3032 5.21178 76.1681 5.00162 77.3158 5.00162C78.2211 5.00162 79.0213 5.2037 79.7165 5.60784C80.4277 6.01199 80.9855 6.58588 81.3896 7.3295C81.7938 8.05697 81.9958 8.93801 81.9958 9.97262V17.1502H79.4982V10.1666C79.4982 9.132 79.2396 8.3722 78.7223 7.88723C78.205 7.38609 77.4937 7.13552 76.5884 7.13552C75.5537 7.13552 74.7212 7.475 74.0907 8.15396C73.4764 8.83293 73.1693 9.81904 73.1693 11.1123V17.1502H70.6717Z" fill="#111827"/>
<path d="M92.5012 17.4897C91.3373 17.4897 90.4401 17.2796 89.8096 16.8593C89.1953 16.439 88.7346 15.9701 88.4274 15.4528H88.0395V17.1502H85.5903V0.176123H88.088V6.82028H88.4759C88.6699 6.49696 88.9286 6.18981 89.2519 5.89883C89.5752 5.59168 90.0036 5.34111 90.5371 5.14712C91.0706 4.95313 91.7253 4.85613 92.5012 4.85613C93.5035 4.85613 94.425 5.09862 95.2656 5.58359C96.1062 6.06857 96.7771 6.77178 97.2782 7.69324C97.7794 8.61469 98.03 9.71397 98.03 10.9911V11.3548C98.03 12.6481 97.7713 13.7554 97.254 14.6769C96.7528 15.5822 96.082 16.2773 95.2413 16.7623C94.4169 17.2472 93.5035 17.4897 92.5012 17.4897ZM91.7738 15.3073C92.8569 15.3073 93.746 14.9598 94.4411 14.2646C95.1524 13.5695 95.5081 12.5753 95.5081 11.2821V11.0638C95.5081 9.78671 95.1605 8.8006 94.4654 8.10546C93.7703 7.41033 92.873 7.06277 91.7738 7.06277C90.7068 7.06277 89.8177 7.41033 89.1064 8.10546C88.4113 8.8006 88.0637 9.78671 88.0637 11.0638V11.2821C88.0637 12.5753 88.4113 13.5695 89.1064 14.2646C89.8177 14.9598 90.7068 15.3073 91.7738 15.3073Z" fill="#111827"/>
<path d="M106.605 17.4897C105.392 17.4897 104.334 17.2392 103.428 16.738C102.523 16.2207 101.812 15.5013 101.294 14.5799C100.793 13.6423 100.543 12.5592 100.543 11.3305V11.0396C100.543 9.79479 100.793 8.71168 101.294 7.79023C101.796 6.85261 102.491 6.13323 103.38 5.63209C104.285 5.11479 105.328 4.85613 106.508 4.85613C107.656 4.85613 108.658 5.11479 109.515 5.63209C110.388 6.13323 111.067 6.83645 111.552 7.74173C112.037 8.64702 112.279 9.70588 112.279 10.9183V11.864H103.089C103.121 12.9148 103.469 13.7554 104.132 14.3859C104.811 15.0002 105.651 15.3073 106.653 15.3073C107.591 15.3073 108.294 15.0972 108.763 14.6769C109.248 14.2566 109.62 13.7716 109.878 13.222L111.94 14.2889C111.713 14.7415 111.382 15.2184 110.945 15.7196C110.525 16.2207 109.967 16.641 109.272 16.9805C108.577 17.32 107.688 17.4897 106.605 17.4897ZM103.113 9.94837H109.733C109.668 9.04308 109.345 8.33987 108.763 7.83873C108.181 7.32142 107.421 7.06277 106.484 7.06277C105.546 7.06277 104.778 7.32142 104.18 7.83873C103.598 8.33987 103.242 9.04308 103.113 9.94837Z" fill="#111827"/>
<path d="M115.286 17.1502V5.19561H117.735V6.60204H118.123C118.317 6.1009 118.624 5.73717 119.044 5.51085C119.481 5.26836 120.014 5.14712 120.645 5.14712H122.075V7.40225H120.548C119.739 7.40225 119.076 7.62857 118.559 8.08122C118.042 8.51769 117.783 9.19666 117.783 10.1181V17.1502H115.286Z" fill="#111827"/>
<path d="M123.655 11.2336V10.8698C123.655 9.60889 123.905 8.53386 124.407 7.64474C124.924 6.75562 125.603 6.06857 126.443 5.58359C127.284 5.09862 128.206 4.85613 129.208 4.85613C130.372 4.85613 131.261 5.07437 131.875 5.51085C132.506 5.94733 132.966 6.41614 133.257 6.91728H133.645V5.19561H136.07V19.5994C136.07 20.3268 135.852 20.9088 135.415 21.3453C134.995 21.7818 134.413 22 133.67 22H125.619V19.8176H132.894C133.362 19.8176 133.597 19.5751 133.597 19.0901V15.2831H133.209C133.031 15.5741 132.78 15.8731 132.457 16.1803C132.134 16.4875 131.705 16.738 131.172 16.932C130.655 17.126 130 17.223 129.208 17.223C128.206 17.223 127.276 16.9886 126.419 16.5198C125.579 16.0348 124.908 15.3478 124.407 14.4586C123.905 13.5534 123.655 12.4783 123.655 11.2336ZM129.887 15.0406C130.97 15.0406 131.859 14.7011 132.554 14.0222C133.265 13.327 133.621 12.3732 133.621 11.1608V10.9426C133.621 9.6978 133.273 8.74402 132.578 8.08122C131.883 7.40225 130.986 7.06277 129.887 7.06277C128.82 7.06277 127.931 7.40225 127.219 8.08122C126.524 8.74402 126.177 9.6978 126.177 10.9426V11.1608C126.177 12.3732 126.524 13.327 127.219 14.0222C127.931 14.7011 128.82 15.0406 129.887 15.0406Z" fill="#111827"/>
</svg>
